<svg width="257" height="426" viewBox="0 0 257 426" fill="none" xmlns="http://www.w3.org/2000/svg">
<mask id="mask0_1_77" style="mask-type:luminance" maskUnits="userSpaceOnUse" x="0" y="0" width="257" height="426">
<path d="M0 0H257V426H0V0Z" fill="white"/>
</mask>
<g mask="url(#mask0_1_77)">
<path d="M111 82C93.8792 82 80 68.1208 80 51C80 33.8792 93.8792 20 111 20C128.121 20 142 33.8792 142 51C142 68.1208 128.121 82 111 82Z" fill="#2F2E41"/>
<path d="M248.72 192.471C247.255 193.038 245.684 193.278 244.117 193.172C242.55 193.067 241.026 192.619 239.65 191.86C238.275 191.102 237.083 190.051 236.158 188.782C235.233 187.513 234.597 186.056 234.296 184.515L149.059 130.737L164.573 113.27L243.516 171.66C246.139 171.326 248.794 171.965 250.977 173.457C253.16 174.949 254.72 177.189 255.361 179.755C256.003 182.32 255.681 185.031 254.457 187.375C253.233 189.719 251.191 191.532 248.72 192.471Z" fill="#FFB8B8"/>
<path d="M166.854 145.034C167.608 145.035 168.351 144.847 169.014 144.487C169.677 144.126 170.238 143.605 170.647 142.971L180.518 127.632C181.14 126.664 181.369 125.493 181.155 124.362C180.941 123.231 180.302 122.224 179.369 121.55L146.339 97.6768C144.737 96.5183 142.918 95.693 140.991 95.2498C139.063 94.8065 137.067 94.7543 135.119 95.0962C133.171 95.4381 131.312 96.1672 129.651 97.2404C127.99 98.3135 126.561 99.7089 125.448 101.344C124.336 102.979 123.563 104.821 123.175 106.76C122.787 108.699 122.791 110.696 123.189 112.634C123.586 114.571 124.368 116.409 125.488 118.039C126.608 119.668 128.044 121.057 129.71 122.122L164.439 144.327C165.16 144.789 165.998 145.035 166.854 145.034Z" fill="#2F2E41"/>
<path d="M152.106 412.85L164.365 412.849L170.198 365.561L152.103 365.562L152.106 412.85Z" fill="#FFB8B8"/>
<path d="M173.123 409.346H149.479V424.233H188.01C188.01 422.278 187.624 420.342 186.876 418.536C186.128 416.73 185.032 415.089 183.649 413.707C182.267 412.324 180.626 411.228 178.82 410.479C177.013 409.731 175.078 409.346 173.123 409.346Z" fill="#2F2E41"/>
<path d="M94.872 403.684L106.676 406.998L125.074 363.047L107.653 358.156L94.872 403.684Z" fill="#FFB8B8"/>
<path d="M116.053 405.992L93.2895 399.602L89.266 413.934L126.363 424.348C126.891 422.466 127.044 420.498 126.811 418.557C126.579 416.616 125.967 414.739 125.01 413.035C124.052 411.33 122.769 409.831 121.232 408.623C119.695 407.414 117.936 406.52 116.053 405.992Z" fill="#2F2E41"/>
<path d="M61.84 331.113L109.436 274.942L80.5547 239.898C80.1311 239.385 79.5988 238.971 78.996 238.688C78.3933 238.405 77.7352 238.259 77.0692 238.261C76.4033 238.263 75.7461 238.412 75.145 238.699C74.544 238.986 74.014 239.403 73.5935 239.919L29.8918 293.553L61.84 331.113Z" fill="#3347B0"/>
<path d="M107.516 275.36C106.814 274.098 105.944 272.936 104.929 271.907L77.3622 243.96C76.282 242.859 74.8267 242.206 73.2864 242.13C70.1365 241.981 64.9706 242.299 63.5307 245.755L100.749 276.206L107.516 275.36Z" fill="#F2F2F2"/>
<path d="M60.186 342.999C62.3087 342.936 64.3717 342.282 66.1438 341.112L66.2754 340.977L109.867 274.308L102.634 273.608L63.8669 243.37C63.3775 242.988 62.8144 242.712 62.213 242.558C61.6116 242.405 60.985 242.377 60.3724 242.478C59.7599 242.578 59.1747 242.804 58.6536 243.141C58.1326 243.478 57.687 243.92 57.3447 244.437L14.9685 308.575C14.3182 309.566 14.0836 310.772 14.3152 311.934C14.5468 313.096 15.2261 314.121 16.2065 314.786L57.2126 342.437C58.1586 342.813 59.168 343.004 60.186 342.999Z" fill="#3347B0"/>
<path d="M75.6033 297.394C76.0134 297.394 76.4175 297.294 76.7797 297.102C77.142 296.91 77.4515 296.631 77.6807 296.291L82.6885 288.853C83.058 288.302 83.1942 287.628 83.0671 286.977C82.9401 286.327 82.5602 285.753 82.0108 285.382L56.3196 268.086C55.7692 267.717 55.0949 267.581 54.4445 267.708C53.7941 267.835 53.2205 268.215 52.8494 268.764L47.8418 276.202C47.4723 276.753 47.3362 277.427 47.4632 278.078C47.5903 278.728 47.9702 279.302 48.5196 279.673L74.2107 296.969C74.6222 297.246 75.1072 297.394 75.6033 297.394Z" fill="#E5B657"/>
<path d="M172.138 405.698C173.505 405.693 174.821 405.177 175.828 404.251C176.834 403.325 177.458 402.057 177.576 400.694C179.758 375.909 190.703 250.994 191.905 225.768C193.239 197.738 169.912 153.396 169.676 152.952L169.515 152.647L157.985 154.088V155.429L147.011 156.72L125.772 158.775L119.692 233.094L117.003 283.496L91.7442 386.439C91.4581 387.579 91.6318 388.786 92.228 389.799C92.8242 390.812 93.7949 391.55 94.9305 391.854L116.914 397.849C118.057 398.155 119.274 398.001 120.305 397.42C121.336 396.839 122.097 395.876 122.426 394.739L143.124 322.032C143.224 321.68 143.449 321.377 143.757 321.18C144.065 320.983 144.435 320.905 144.796 320.961C145.158 321.017 145.486 321.204 145.72 321.485C145.954 321.766 146.077 322.124 146.066 322.489L143.876 393.385C143.865 394.113 144.003 394.835 144.281 395.508C144.559 396.181 144.972 396.789 145.494 397.297C150.533 402.029 163.847 404.556 171.335 405.641C171.601 405.679 171.869 405.698 172.138 405.698Z" fill="#2F2E41"/>
<path d="M106.082 93.3925C109.57 89.756 132.555 94.7534 137.658 100.111L172.594 157.217L114.815 167.967L102.05 95.408L106.082 93.3925Z" fill="#3347B0"/>
<path d="M121.226 238.479C122.47 238.48 123.706 238.274 124.883 237.87C128.24 236.719 132.354 235.514 137.111 234.291C157.944 228.934 165.3 211.781 158.973 183.311L158.813 182.588C152.872 155.581 141.673 130.007 125.856 107.325L123.406 103.806C120.449 99.5594 116.308 96.2761 111.5 94.3638C106.692 92.4515 101.427 91.9945 96.3612 93.0498C86.9869 94.9834 81.9537 97.7852 81.401 101.378C80.3163 108.428 101.255 193.647 110.308 229.96C110.914 232.395 112.319 234.558 114.298 236.102C116.277 237.646 118.717 238.483 121.226 238.479Z" fill="#2F2E41"/>
<path d="M192.996 227.539C193.541 227.539 194.082 227.455 194.601 227.289L201.354 225.129C202.052 224.905 202.696 224.539 203.244 224.052C203.792 223.566 204.233 222.97 204.538 222.303C204.843 221.637 205.005 220.914 205.015 220.181C205.025 219.448 204.882 218.721 204.594 218.047L168.763 133.943C161.898 117.899 149.894 104.593 134.64 96.1162C134.419 95.9944 134.174 95.9195 133.923 95.8959C133.671 95.8724 133.418 95.9009 133.178 95.9795C132.957 96.0497 132.754 96.1653 132.581 96.3189C132.408 96.4724 132.269 96.6606 132.173 96.8711C127.959 106.142 150.895 150.015 169.325 185.267C178.763 203.317 186.913 218.907 187.84 223.353C188.088 224.537 188.736 225.599 189.675 226.362C190.614 227.124 191.786 227.54 192.996 227.539Z" fill="#2F2E41"/>
<path d="M82.1412 246.703C80.8826 245.764 79.8453 244.56 79.1023 243.177C78.3593 241.793 77.9287 240.263 77.8408 238.695C77.753 237.127 78.01 235.559 78.5938 234.101C79.1776 232.643 80.074 231.331 81.2198 230.257L81.5046 129.473L104.545 133.338L97.0088 231.24C98.6856 233.285 99.5542 235.873 99.45 238.515C99.3457 241.157 98.276 243.67 96.4434 245.576C94.6107 247.482 92.1426 248.649 89.5066 248.857C86.8706 249.065 84.25 248.299 82.1412 246.703Z" fill="#FFB8B8"/>
<path d="M100.901 154.477C102.043 154.476 103.142 154.042 103.975 153.261C104.809 152.481 105.314 151.413 105.389 150.273L108.07 109.607C108.323 105.695 107.014 101.841 104.43 98.8923C101.846 95.9433 98.1974 94.1397 94.2852 93.877C92.2766 93.7447 90.2621 94.0238 88.3651 94.6973C86.4681 95.3708 84.7286 96.4244 83.2531 97.7937C81.7775 99.163 80.5971 100.819 79.7839 102.661C78.9708 104.502 78.5421 106.49 78.5242 108.503L78.1602 149.723C78.1518 150.913 78.6147 152.059 79.4478 152.909C80.2809 153.76 81.4165 154.246 82.607 154.263L100.846 154.477H100.901Z" fill="#2F2E41"/>
<path d="M117.386 83.5768C103.821 83.5768 92.8248 72.5804 92.8248 59.0157C92.8248 45.4511 103.821 34.4547 117.386 34.4547C130.95 34.4547 141.947 45.4511 141.947 59.0157C141.947 72.5804 130.95 83.5768 117.386 83.5768Z" fill="#FFB8B8"/>
<path d="M96.9644 76.202C95.1326 70.3723 93.4509 63.4987 97.076 58.5795C99.688 55.0349 104.378 53.6629 108.777 53.4665C113.175 53.27 117.586 54.0156 121.976 53.6667C126.365 53.3178 131.004 51.5854 133.233 47.7887C136.124 42.8655 133.676 36.0846 129.028 32.7691C124.38 29.4535 118.239 28.9906 112.583 29.7629C105.424 30.6127 98.6949 33.6229 93.2902 38.3927C88.032 43.2456 84.6048 50.2408 84.7575 57.3946C84.9102 64.5484 88.9224 71.6723 95.3164 74.8842" fill="#2F2E41"/>
<path d="M103.088 22.5341C108.968 20.7229 111.68 12.9493 109.051 7.38717C106.421 1.825 99.7 -1.08762 93.5966 -0.312871C87.4933 0.461879 82.1152 4.37754 78.4056 9.28576C74.696 14.194 72.4588 20.0448 70.5938 25.9076C68.7288 31.7705 67.1779 37.7603 64.6306 43.3605C60.5883 51.9652 54.3527 59.3544 46.5502 64.7859C38.7478 70.2173 29.6533 73.4996 20.1805 74.3031C16.0515 74.6022 11.7666 74.3879 8.00362 72.662C4.24067 70.9362 1.08498 67.4566 0.663347 63.3383C-1.47838 77.9673 7.03214 93.5144 20.5095 99.5935C33.9869 105.673 51.2741 101.762 60.8225 90.4736C70.1536 79.4424 71.5988 63.8681 71.3743 49.4214C71.3128 45.4598 71.1668 41.4234 72.2612 37.6155C73.3557 33.8076 75.9459 30.1869 79.7188 28.9775C82.7629 28.0017 86.0599 28.7051 89.1809 29.3969C92.3018 30.0887 95.6157 30.7546 98.6375 29.7117C101.659 28.6689 104.092 25.2325 102.875 22.2768" fill="#2F2E41"/>
</g>
</svg>
