<svg width="436" height="262" viewBox="0 0 436 262" fill="none" xmlns="http://www.w3.org/2000/svg">
<g clip-path="url(#clip0_1_96)">
<mask id="mask0_1_96" style="mask-type:luminance" maskUnits="userSpaceOnUse" x="0" y="0" width="436" height="262">
<path d="M436 0H0V262H436V0Z" fill="white"/>
</mask>
<g mask="url(#mask0_1_96)">
<path d="M219.606 260.728H343.917C348.825 260.728 348.833 253.097 343.917 253.097H219.606C214.698 253.097 214.69 260.728 219.606 260.728Z" fill="#E6E6E6"/>
<path d="M186.044 94.8993H62.1499C60.8411 94.9009 59.5864 95.4219 58.661 96.3478C57.7356 97.2738 57.2149 98.5292 57.2134 99.8387V124.465C63.3935 124.611 67.4049 129.713 68.3769 135.907V158.232H68.8462C68.9208 158.233 68.9923 158.262 69.0451 158.315C69.0978 158.368 69.1276 158.439 69.1278 158.514V170.393C69.1276 170.468 69.0978 170.54 69.0451 170.592C68.9923 170.645 68.9208 170.675 68.8462 170.675H68.3769V242.477C68.3769 244.054 68.3611 246.933 68.3611 246.933H186.044C187.352 246.931 188.607 246.41 189.533 245.484C190.458 244.558 190.979 243.303 190.98 241.993V99.8387C190.979 98.5292 190.458 97.2738 189.533 96.3478C188.607 95.4218 187.352 94.9009 186.044 94.8993Z" fill="#3347B0"/>
<path d="M416.234 13.8696V148.622H199.549V89.2933C199.546 86.5993 198.475 84.0165 196.572 82.1116C194.668 80.2067 192.086 79.1354 189.394 79.1329H148.756V13.8696H416.234Z" fill="#3347B0"/>
<path d="M429.612 167.619H199.791V166.68H428.674V7.98184C428.672 6.11462 427.929 4.32448 426.61 3.00416C425.29 1.68384 423.501 0.941145 421.635 0.93903H140.549C138.683 0.941147 136.894 1.68384 135.574 3.00416C134.254 4.32448 133.512 6.11462 133.51 7.98184V78.5244H132.572V7.98184C132.574 5.86566 133.415 3.83682 134.911 2.34046C136.406 0.844085 138.434 0.00237402 140.549 -7.62939e-06H421.635C423.75 0.00237065 425.778 0.844075 427.273 2.34045C428.769 3.83682 429.61 5.86566 429.612 7.98184V167.619Z" fill="#3F3D56"/>
<path d="M407.836 196.259H199.791V195.32H407.836C413.361 195.314 418.657 193.115 422.564 189.207C426.47 185.298 428.667 179.999 428.674 174.471V167.619H199.791V166.68H429.612V174.471C429.606 180.248 427.309 185.786 423.227 189.87C419.144 193.955 413.609 196.253 407.836 196.259Z" fill="#3F3D56"/>
<path d="M346.092 242.272C334.494 231.13 326.865 216.591 324.412 196.259H238.935C238.065 215.281 230.485 229.546 216.809 242.222L215.364 242.272C229.473 229.479 237.245 215.109 238.017 195.771L238.035 195.32H325.247L325.295 195.735C327.704 216.412 335.493 231.044 347.377 242.197L346.092 242.272Z" fill="#3F3D56"/>
<path d="M189.167 261.697H57.4942V260.758H189.167C191.859 260.755 194.44 259.684 196.344 257.779C198.247 255.874 199.318 253.292 199.321 250.598V89.5089C199.318 86.8152 198.247 84.2327 196.344 82.328C194.44 80.4233 191.859 79.3519 189.167 79.3488H57.4942C54.802 79.3519 52.221 80.4233 50.3173 82.328C48.4137 84.2327 47.3429 86.8152 47.3399 89.5089V124.273H46.4014V89.5089C46.4047 86.5662 47.5745 83.7451 49.654 81.6643C51.7336 79.5836 54.5532 78.4131 57.4942 78.4098H189.167C192.108 78.4131 194.928 79.5836 197.007 81.6643C199.087 83.7451 200.257 86.5662 200.26 89.5089V250.598C200.257 253.541 199.087 256.362 197.007 258.443C194.928 260.524 192.108 261.694 189.167 261.697Z" fill="#3F3D56"/>
<path d="M123.331 90.29C122.701 90.29 122.086 90.1032 121.563 89.7534C121.04 89.4036 120.632 88.9063 120.391 88.3246C120.15 87.7428 120.087 87.1026 120.21 86.485C120.333 85.8674 120.636 85.3001 121.081 84.8549C121.526 84.4096 122.093 84.1063 122.71 83.9835C123.327 83.8606 123.967 83.9237 124.548 84.1646C125.13 84.4056 125.627 84.8137 125.976 85.3372C126.326 85.8608 126.513 86.4763 126.513 87.106C126.512 87.9502 126.176 88.7595 125.58 89.3563C124.983 89.9532 124.174 90.289 123.331 90.29ZM123.331 84.6582C122.847 84.6582 122.374 84.8018 121.972 85.0708C121.569 85.3398 121.256 85.7221 121.07 86.1694C120.885 86.6167 120.837 87.1089 120.931 87.5837C121.026 88.0586 121.259 88.4948 121.601 88.8371C121.943 89.1795 122.379 89.4126 122.853 89.507C123.328 89.6015 123.82 89.553 124.267 89.3677C124.714 89.1824 125.096 88.8686 125.365 88.4661C125.634 88.0635 125.777 87.5902 125.777 87.1061C125.777 86.4571 125.519 85.8349 125.06 85.376C124.601 84.9171 123.979 84.659 123.331 84.6582Z" fill="#3F3D56"/>
<path d="M123.331 258.098C122.528 258.098 121.743 257.86 121.075 257.414C120.407 256.967 119.887 256.333 119.579 255.59C119.272 254.848 119.192 254.031 119.348 253.243C119.505 252.455 119.892 251.731 120.459 251.163C121.027 250.595 121.751 250.208 122.538 250.051C123.326 249.894 124.142 249.975 124.884 250.282C125.626 250.59 126.26 251.111 126.707 251.779C127.153 252.447 127.391 253.232 127.391 254.036C127.39 255.113 126.961 256.145 126.2 256.907C125.439 257.669 124.407 258.097 123.331 258.098ZM123.331 250.912C122.713 250.912 122.11 251.095 121.596 251.439C121.083 251.782 120.683 252.27 120.446 252.84C120.21 253.411 120.148 254.039 120.269 254.645C120.389 255.251 120.687 255.808 121.123 256.244C121.56 256.681 122.116 256.979 122.722 257.099C123.327 257.22 123.955 257.158 124.525 256.921C125.096 256.685 125.583 256.285 125.926 255.771C126.269 255.257 126.452 254.653 126.452 254.036C126.451 253.208 126.122 252.414 125.537 251.828C124.952 251.243 124.158 250.913 123.331 250.912Z" fill="#3F3D56"/>
<path d="M56.1719 261.97H12.5846C9.30325 261.966 6.15735 260.66 3.83709 258.338C1.51683 256.017 0.211682 252.869 0.208008 249.586V136.656C0.211727 133.373 1.51687 130.226 3.83712 127.904C6.15736 125.583 9.30322 124.277 12.5845 124.273H56.172C59.4533 124.277 62.5991 125.583 64.9194 127.904C67.2396 130.226 68.5448 133.373 68.5485 136.656V156.866C68.7707 156.959 68.9606 157.115 69.0942 157.316C69.2278 157.516 69.2993 157.752 69.2995 157.993V171.142C69.2992 171.383 69.2278 171.619 69.0942 171.82C68.9606 172.02 68.7707 172.177 68.5485 172.27V249.586C68.5447 252.869 67.2396 256.017 64.9193 258.338C62.5991 260.66 59.4532 261.966 56.1719 261.97ZM12.5845 125.212C9.55204 125.216 6.64476 126.422 4.50046 128.568C2.35617 130.713 1.14998 133.622 1.14651 136.656V249.586C1.14992 252.62 2.35609 255.529 4.5004 257.675C6.64472 259.82 9.55205 261.027 12.5846 261.031H56.1719C59.2044 261.027 62.1117 259.82 64.256 257.675C66.4003 255.529 67.6065 252.62 67.61 249.586V171.424H68.0792C68.1539 171.424 68.2255 171.395 68.2783 171.342C68.3311 171.289 68.3608 171.217 68.3609 171.142L68.361 157.993C68.3609 157.918 68.3312 157.846 68.2784 157.793C68.2255 157.741 68.1539 157.711 68.0792 157.711H67.61V136.656C67.6065 133.622 66.4003 130.713 64.256 128.568C62.1117 126.422 59.2044 125.216 56.172 125.212H12.5845Z" fill="#3F3D56"/>
<path d="M56.6524 127.842H50.9628C51.2244 128.484 51.3243 129.18 51.2536 129.87C51.1829 130.559 50.9438 131.221 50.5574 131.796C50.171 132.372 49.6491 132.843 49.0377 133.169C48.4263 133.495 47.7441 133.666 47.0513 133.666H22.0807C21.3879 133.666 20.7058 133.495 20.0943 133.169C19.4829 132.843 18.961 132.372 18.5746 131.796C18.1882 131.221 17.9491 130.559 17.8784 129.87C17.8077 129.18 17.9076 128.484 18.1692 127.842H12.8551C10.4968 127.842 8.235 128.779 6.56739 130.448C4.89977 132.117 3.9629 134.38 3.96289 136.739V249.503C3.96289 251.863 4.89975 254.126 6.56737 255.794C8.23499 257.463 10.4968 258.4 12.8551 258.4H56.6524C59.0108 258.4 61.2726 257.463 62.9402 255.794C64.6078 254.126 65.5447 251.863 65.5447 249.503V136.739C65.5446 134.38 64.6078 132.117 62.9402 130.448C61.2725 128.779 59.0108 127.842 56.6524 127.842Z" fill="#3347B0"/>
<path d="M346.382 261.523H216.397C215.102 261.524 213.82 261.269 212.623 260.774C211.427 260.279 210.34 259.553 209.424 258.637C208.508 257.722 207.781 256.634 207.286 255.438C206.79 254.241 206.535 252.958 206.535 251.663C206.535 250.367 206.79 249.084 207.286 247.888C207.781 246.691 208.508 245.603 209.424 244.688C210.34 243.772 211.427 243.046 212.623 242.551C213.82 242.056 215.102 241.802 216.397 241.803H346.382C348.994 241.805 351.498 242.845 353.345 244.693C355.191 246.542 356.228 249.049 356.228 251.663C356.228 254.276 355.191 256.783 353.345 258.632C351.498 260.481 348.994 261.52 346.382 261.523ZM216.397 242.742C214.032 242.742 211.765 243.682 210.092 245.355C208.42 247.028 207.481 249.297 207.481 251.663C207.481 254.029 208.42 256.298 210.092 257.971C211.765 259.644 214.032 260.583 216.397 260.583H346.382C348.746 260.583 351.014 259.644 352.686 257.971C354.358 256.298 355.298 254.029 355.298 251.663C355.298 249.297 354.358 247.028 352.686 245.355C351.014 243.682 348.746 242.742 346.382 242.742H216.397Z" fill="#3F3D56"/>
</g>
</g>
<defs>
<clipPath id="clip0_1_96">
<rect width="436" height="262" fill="white"/>
</clipPath>
</defs>
</svg>
