<svg width="96" height="77" viewBox="0 0 96 77" fill="none" xmlns="http://www.w3.org/2000/svg">
<g clip-path="url(#clip0_1_122)">
<path d="M96 39.6V37.2C96 35.874 94.926 34.8 93.6 34.8H51.6V28.8H62.4C65.0505 28.8 67.2 26.6505 67.2 24V4.8C67.2 2.1495 65.0505 0 62.4 0H33.6C30.9495 0 28.8 2.1495 28.8 4.8V24C28.8 26.6505 30.9495 28.8 33.6 28.8H44.4V34.8H2.4C1.074 34.8 0 35.874 0 37.2V39.6C0 40.926 1.074 42 2.4 42H18V48H9.6C6.9495 48 4.8 50.1495 4.8 52.8V72C4.8 74.6505 6.9495 76.8 9.6 76.8H33.6C36.2505 76.8 38.4 74.6505 38.4 72V52.8C38.4 50.1495 36.2505 48 33.6 48H25.2V42H70.8V48H62.4C59.7495 48 57.6 50.1495 57.6 52.8V72C57.6 74.6505 59.7495 76.8 62.4 76.8H86.4C89.0505 76.8 91.2 74.6505 91.2 72V52.8C91.2 50.1495 89.0505 48 86.4 48H78V42H93.6C94.926 42 96 40.926 96 39.6ZM38.4 19.2V9.6H57.6V19.2H38.4ZM28.8 67.2H14.4V57.6H28.8V67.2ZM81.6 67.2H67.2V57.6H81.6V67.2Z" fill="white"/>
</g>
<defs>
<clipPath id="clip0_1_122">
<rect width="96" height="77" fill="white"/>
</clipPath>
</defs>
</svg>
